<svg width="512" height="512" viewBox="0 0 512 512" fill="none" xmlns="http://www.w3.org/2000/svg">
<g clip-path="url(#clip0_235_11779)">
<rect width="512" height="512" fill="#0F0F0F"/>
<path fill-rule="evenodd" clip-rule="evenodd" d="M0 0V383.804C0 383.869 4.90052e-05 383.935 0.000146981 384L0 508C0 485.151 8.94479 430.206 13.8578 401.75C24.3507 341.845 37.2666 286.322 52.217 236.34C65.5678 191.706 80.5409 151.491 96.86 116.521C98.3218 113.388 101.915 111.861 105.119 113.155C143.155 128.52 178.702 167.29 210.08 224.449C211.309 226.687 213.674 228.081 216.225 228.04C229.321 227.83 242.499 227.724 255.75 227.724C269.002 227.724 282.179 227.83 295.275 228.04C297.827 228.081 300.192 226.687 301.42 224.449C332.799 167.29 368.346 128.52 406.381 113.155C409.585 111.861 413.179 113.388 414.64 116.521C430.96 151.491 445.933 191.706 459.284 236.34C459.514 237.11 459.743 237.88 459.972 238.652C475.976 292.564 490.047 352.859 500.905 418.096C505.814 447.798 512 488.998 512 508V4.57764e-05L0 0ZM282.45 90.4072C279.222 90.4072 276.801 87.4528 277.434 84.2862L286.537 38.7487C287.53 33.7839 281.483 30.5464 277.905 34.1266L196.282 115.787C193.06 119.011 195.342 124.523 199.899 124.523H229.051C232.279 124.523 234.7 127.477 234.067 130.644L224.963 176.182C223.971 181.146 230.017 184.384 233.596 180.804L315.218 99.1431C318.441 95.9193 316.159 90.4072 311.602 90.4072H282.45Z" fill="url(#paint0_radial_235_11779)"/>
<path d="M364.34 376.669C363.241 379.867 365.781 383.355 368.866 382.491C390.983 376.3 409.023 361.46 419.937 342.167C423.083 336.607 422.026 329.403 417.417 324.982C401.421 309.64 379.88 300.611 356.917 301.039C353.714 301.099 352.284 305.17 354.254 307.917C361.346 317.806 366.065 328.946 367.838 341.039C369.612 353.132 368.293 365.158 364.34 376.669Z" fill="url(#paint1_radial_235_11779)"/>
<path d="M340.485 309.902C341.582 306.71 339.055 303.225 335.971 304.076C313.72 310.217 295.568 325.103 284.605 344.483C281.459 350.043 282.516 357.246 287.125 361.667C303.192 377.077 324.854 386.118 347.931 385.604C351.128 385.533 352.549 381.467 350.58 378.726C343.475 368.829 338.748 357.678 336.972 345.571C335.196 333.464 336.521 321.424 340.485 309.902Z" fill="url(#paint2_radial_235_11779)"/>
<path d="M152.378 307.944C154.315 305.181 152.85 301.132 149.651 301.097C126.57 300.841 105.011 310.123 89.1176 325.713C84.5577 330.185 83.5817 337.4 86.7891 342.924C97.9685 362.179 116.286 376.861 138.604 382.753C141.697 383.57 144.186 380.056 143.052 376.877C138.96 365.4 137.501 353.376 139.141 341.25C140.782 329.124 145.384 317.92 152.378 307.944Z" fill="url(#paint3_radial_235_11779)"/>
<path d="M156.843 378.708C154.904 381.477 156.38 385.532 159.583 385.556C182.549 385.726 203.988 376.457 219.811 360.937C224.371 356.464 225.347 349.249 222.139 343.725C211.009 324.555 192.805 309.918 170.62 303.974C167.525 303.145 165.025 306.662 166.159 309.847C170.24 321.313 171.695 333.324 170.056 345.436C168.418 357.548 163.824 368.74 156.843 378.708Z" fill="url(#paint4_radial_235_11779)"/>
</g>
<defs>
<radialGradient id="paint0_radial_235_11779" cx="0" cy="0" r="1" gradientUnits="userSpaceOnUse" gradientTransform="translate(257.748 216.761) rotate(90) scale(200.269 257.755)">
<stop stop-color="#FFF6D7"/>
<stop offset="1" stop-color="#FFCB12"/>
</radialGradient>
<radialGradient id="paint1_radial_235_11779" cx="0" cy="0" r="1" gradientUnits="userSpaceOnUse" gradientTransform="translate(257.748 216.761) rotate(90) scale(200.269 257.755)">
<stop stop-color="#FFF6D7"/>
<stop offset="1" stop-color="#FFCB12"/>
</radialGradient>
<radialGradient id="paint2_radial_235_11779" cx="0" cy="0" r="1" gradientUnits="userSpaceOnUse" gradientTransform="translate(257.748 216.761) rotate(90) scale(200.269 257.755)">
<stop stop-color="#FFF6D7"/>
<stop offset="1" stop-color="#FFCB12"/>
</radialGradient>
<radialGradient id="paint3_radial_235_11779" cx="0" cy="0" r="1" gradientUnits="userSpaceOnUse" gradientTransform="translate(257.748 216.761) rotate(90) scale(200.269 257.755)">
<stop stop-color="#FFF6D7"/>
<stop offset="1" stop-color="#FFCB12"/>
</radialGradient>
<radialGradient id="paint4_radial_235_11779" cx="0" cy="0" r="1" gradientUnits="userSpaceOnUse" gradientTransform="translate(257.748 216.761) rotate(90) scale(200.269 257.755)">
<stop stop-color="#FFF6D7"/>
<stop offset="1" stop-color="#FFCB12"/>
</radialGradient>
<clipPath id="clip0_235_11779">
<rect width="512" height="512" fill="white"/>
</clipPath>
</defs>
</svg>
